<svg aria-hidden="true" style="position: absolute; width: 0; height: 0; overflow: hidden;" version="1.1" xmlns="http://www.w3.org/2000/svg" xmlns:xlink="http://www.w3.org/1999/xlink">
<defs>
<symbol id="cake" viewBox="0 0 32 32">
<path d="M16 20c0-1.105 0.895-2 2-2s2 0.895 2 2c0 1.105-0.895 2-2 2s-2-0.895-2-2zM29.001 13c-0.001 0-0.001 0 0 0l-0.001-6v-3c0-1.657-1.344-3-3-3h-20.5c-3.033 0-5.5 2.468-5.5 5.5v20c0 3.032 2.467 5.5 5.5 5.5h18c3.032 0 5.5-2.468 5.5-5.5v-1.5c0 0 0 0 0.001 0 3.998-3.001 3.998-8.999 0-12zM5.5 3h20.5c0.551 0 1 0.448 1 1v6.184c-0.314-0.112-0.648-0.184-1-0.184h-0.001v-5c0-0.553-0.448-1-1-1h-21c-0.552 0-1 0.447-1 1v3.943c-0.617-0.631-0.999-1.491-0.999-2.443 0-1.933 1.566-3.5 3.5-3.5zM24.999 6h-21v-1h21v1zM24.999 7v1h-21v-1h21zM24.999 9v1h-19.499c-0.54 0-1.044-0.132-1.5-0.35v-0.65h20.999zM27 26.5c0 1.933-1.567 3.5-3.5 3.5h-18c-1.934 0-3.5-1.567-3.5-3.5v-15.761c0.951 0.787 2.171 1.261 3.5 1.261h20.5c0.551 0 1 0.448 1 1v2h-9c-2.762 0-5 2.238-5 5s2.239 5 5 5h9v1.5zM28.277 23h-10.277c-1.654 0-3-1.346-3-3s1.346-3 3-3h9c0.617-0.008 1.229-0.307 1.602-0.804 0.104-0.14 0.185-0.297 0.25-0.461 0.009-0.022 0.025-0.039 0.033-0.062 0.719 0.943 1.115 2.099 1.115 3.327 0 1.538-0.621 2.965-1.723 4z"></path>
</symbol>
<symbol id="month" viewBox="0 0 28 32">
<path d="M8 0c1.106 0 2 0.894 2 2v2h8v-2c0-1.106 0.894-2 2-2s2 0.894 2 2v2h3c1.656 0 3 1.344 3 3v3h-28v-3c0-1.656 1.344-3 3-3h3v-2c0-1.106 0.894-2 2-2zM0 12h28v17c0 1.656-1.344 3-3 3h-22c-1.656 0-3-1.344-3-3v-17zM4 17v2c0 0.55 0.45 1 1 1h2c0.55 0 1-0.45 1-1v-2c0-0.55-0.45-1-1-1h-2c-0.55 0-1 0.45-1 1zM12 17v2c0 0.55 0.45 1 1 1h2c0.55 0 1-0.45 1-1v-2c0-0.55-0.45-1-1-1h-2c-0.55 0-1 0.45-1 1zM21 16c-0.55 0-1 0.45-1 1v2c0 0.55 0.45 1 1 1h2c0.55 0 1-0.45 1-1v-2c0-0.55-0.45-1-1-1h-2zM4 25v2c0 0.55 0.45 1 1 1h2c0.55 0 1-0.45 1-1v-2c0-0.55-0.45-1-1-1h-2c-0.55 0-1 0.45-1 1zM13 24c-0.55 0-1 0.45-1 1v2c0 0.55 0.45 1 1 1h2c0.55 0 1-0.45 1-1v-2c0-0.55-0.45-1-1-1h-2zM20 25v2c0 0.55 0.45 1 1 1h2c0.55 0 1-0.45 1-1v-2c0-0.55-0.45-1-1-1h-2c-0.55 0-1 0.45-1 1z"></path>
</symbol>
<symbol id="week" viewBox="0 0 28 32">
<path d="M8 0c1.106 0 2 0.894 2 2v2h8v-2c0-1.106 0.894-2 2-2s2 0.894 2 2v2h3c1.656 0 3 1.344 3 3v3h-28v-3c0-1.656 1.344-3 3-3h3v-2c0-1.106 0.894-2 2-2zM0 12h28v17c0 1.656-1.344 3-3 3h-22c-1.656 0-3-1.344-3-3v-17zM5 16c-0.55 0-1 0.45-1 1v4c0 0.55 0.45 1 1 1h18c0.55 0 1-0.45 1-1v-4c0-0.55-0.45-1-1-1h-18z"></path>
</symbol>
<symbol id="home" viewBox="0 0 32 32">
<path d="M16 6c-6.979 0-13.028 4.064-16 10 2.972 5.936 9.021 10 16 10s13.027-4.064 16-10c-2.972-5.936-9.021-10-16-10zM23.889 11.303c1.88 1.199 3.473 2.805 4.67 4.697-1.197 1.891-2.79 3.498-4.67 4.697-2.362 1.507-5.090 2.303-7.889 2.303s-5.527-0.796-7.889-2.303c-1.88-1.199-3.473-2.805-4.67-4.697 1.197-1.891 2.79-3.498 4.67-4.697 0.122-0.078 0.246-0.154 0.371-0.228-0.311 0.854-0.482 1.776-0.482 2.737 0 4.418 3.582 8 8 8s8-3.582 8-8c0-0.962-0.17-1.883-0.482-2.737 0.124 0.074 0.248 0.15 0.371 0.228v0zM16 13c0 1.657-1.343 3-3 3s-3-1.343-3-3 1.343-3 3-3 3 1.343 3 3z"></path>
</symbol>
</defs>
</svg>
