<svg aria-hidden="true" style="position: absolute; width: 0; height: 0; overflow: hidden;" version="1.1" xmlns="http://www.w3.org/2000/svg" xmlns:xlink="http://www.w3.org/1999/xlink">
<defs>
<symbol id="headerLogo" viewBox="0 0 28 32">
<path d="M10 5c0-1.656 1.344-3 3-3h2c1.656 0 3 1.344 3 3v22c0 1.656-1.344 3-3 3h-2c-1.656 0-3-1.344-3-3v-22zM0 17c0-1.656 1.344-3 3-3h2c1.656 0 3 1.344 3 3v10c0 1.656-1.344 3-3 3h-2c-1.656 0-3-1.344-3-3v-10zM23 6h2c1.656 0 3 1.344 3 3v18c0 1.656-1.344 3-3 3h-2c-1.656 0-3-1.344-3-3v-18c0-1.656 1.344-3 3-3z"></path>
</symbol>
</defs>
</svg>
